<?xml version="1.0" standalone="no"?><!DOCTYPE svg PUBLIC "-//W3C//DTD SVG 1.1//EN" "http://www.w3.org/Graphics/SVG/1.1/DTD/svg11.dtd"><svg t="1510302902563" class="icon" style="" viewBox="0 0 1024 1024" version="1.1" xmlns="http://www.w3.org/2000/svg" p-id="1872" xmlns:xlink="http://www.w3.org/1999/xlink" width="200" height="200"><defs><style type="text/css"></style></defs><path d="M404.757 492.582h212.719c59.217 0 106.497-48.733 106.497-108.225v-202.784c0-57.725-48.693-101.078-106.497-110.698-36.598-6.086-74.532-8.874-110.933-8.678s-71.194 3.259-101.784 8.678c-90.121 15.904-106.497 49.243-106.497 110.698v81.169h212.955v27.056h-292.905c-61.887 0-116.078 37.188-133.043 107.989-19.555 81.129-20.42 131.746 0 216.449 15.118 63.066 51.285 107.989 113.172 107.989h73.236v-97.308c0-70.291 60.828-132.296 133.043-132.296zM391.327 208.63c-22.107-0.133-39.976-18.085-39.976-40.211 0-0.083 0-0.166 0.001-0.248 0-22.449 17.867-40.709 39.975-40.709 21.99 0 39.975 18.26 39.975 40.721 0 22.383-17.946 40.447-39.975 40.447zM936.888 397.748c-15.276-61.612-44.491-107.989-106.497-107.989h-79.912v94.559c0 73.315-62.163 135.045-133.042 135.045h-212.719c-58.275 0-106.497 49.871-106.497 108.225v202.784c0 57.725 50.185 91.653 106.497 108.225 67.424 19.831 132.061 23.405 212.719 0 53.602-15.511 106.497-46.769 106.497-108.225v-81.169h-212.719v-27.056h319.215c61.887 0 84.938-43.156 106.497-107.989 22.225-66.718 21.283-130.844 0-216.449zM630.867 803.353c22.070 0 39.975 18.103 39.975 40.447 0 22.462-17.907 40.721-39.975 40.721-22.135-0.265-39.976-18.272-39.976-40.444 0-0.097 0-0.195 0.001-0.292 0-22.368 17.946-40.432 39.975-40.432z" fill="#ffffff" p-id="1873"></path></svg>