<?xml version="1.0" standalone="no"?><!DOCTYPE svg PUBLIC "-//W3C//DTD SVG 1.1//EN" "http://www.w3.org/Graphics/SVG/1.1/DTD/svg11.dtd"><svg t="1510302682603" class="icon" style="" viewBox="0 0 1024 1024" version="1.1" xmlns="http://www.w3.org/2000/svg" p-id="1732" xmlns:xlink="http://www.w3.org/1999/xlink" width="200" height="200"><defs><style type="text/css"></style></defs><path d="M778.133 502.42s36.299-38.057 96.768-104.677 103.974-133.242 77.432-161.807c-7.295-45.263-309.551 38.057-309.551 38.057s-55.723-90.528-116.191-180.967c-74.971-83.32-125.771 38.057-125.771 38.057l-48.34 228.516s-188.613 54.756-261.211 85.693c-55.635 38.057-9.668 104.678-9.668 104.678l193.447 85.693 106.435-66.622-174.112-76.201 232.207-57.129 38.672-238.008 116.104 180.879 212.872-47.637-145.195 180.967 96.768 180.879-164.443-47.637 19.336 114.258s145.107 42.803 193.447 47.637c87.099 7.119 77.432-85.693 77.432-85.693l-106.435-218.935zM387.019 816.717l11.69-165.762-93.34 59.502s-17.403 148.974-20.566 191.778c-5.273 69.434 87.099 57.129 87.099 57.129l169.629-173.057-29.531-124.805-124.981 155.215z" p-id="1733" fill="#ffffff"></path></svg>