<?xml version="1.0" standalone="no"?><!DOCTYPE svg PUBLIC "-//W3C//DTD SVG 1.1//EN" "http://www.w3.org/Graphics/SVG/1.1/DTD/svg11.dtd"><svg t="1510306014310" class="icon" style="" viewBox="0 0 1024 1024" version="1.1" xmlns="http://www.w3.org/2000/svg" p-id="1794" xmlns:xlink="http://www.w3.org/1999/xlink" width="200" height="200"><defs><style type="text/css"></style></defs><path d="M171.512 382.408v105.008l96.615 57.647V430.694zM584.258 249.908L788.45 367.329l95.305-55.041-304.828-168.776-399.37 227.299 95.415 47.688zM591.15 717.797l94.287-47.975 2.732-101.074-97.019 45.439zM584.503 601.872l104.088-48.75 0.061-2.233-95.54-55.494-102.514 52.179zM374.056 503.61v337.488L473 899.872V447.954zM486.969 677.299v221.264l90.212-52.754V733.276z" fill="#ffffff" p-id="1795"></path><path d="M486.969 424.068v109.681l89.633-45.623 0.549-218.437-295.055 160.835v108.785zM486.969 660.86l90.212 55.978V613.774l-90.212-52.163zM591.12 269.968l-0.287 113.692 190.638 107.248V379.431zM888.563 325.637l-93.123 53.782V493.09l93.123-61.127z" fill="#ffffff" p-id="1796"></path></svg>